<svg xmlns="http://www.w3.org/2000/svg" width="1000" height="329.33801" viewBox="0 0 1000 329.33802"><path d="m321.82 285.368-.966-241.455C320.854 19.637 339.753 0 363.991 0h4.734c24.257 0 43.932 19.637 43.932 43.913l.966 241.455c0 24.238-19.637 43.932-43.951 43.932h-4.98c-24.314 0-42.872-19.694-42.872-43.932M876.404 28.518 974 187.411c21.094 34.313 25.999 43.25 25.999 68.55 0 39.898-36.168 70.423-68.265 70.423H799.958c-24.087 0-43.496-16.626-43.496-40.656v-2.746c0-24.01 19.41-43.458 43.496-43.458h80.782c5.056 0 8.275-.682 9.6-3.882 1.478-3.503 1.08-5.473-1.325-9.392l-57.547-92.352c-.966-1.534-2.026-3.655-3.844-3.655-1.666 0-3.106 2.121-3.882 3.768l-87.996 150.922c-13.634 23.954-29.768 41.45-53.817 41.45H512.85c-32.003 0-64.251-31.566-64.251-64.268V43.78c0-23.993 19.428-43.478 43.382-43.478h5.549c24.01 0 43.496 19.485 43.496 43.478l-.076 178.36c0 6.59 4.772 11.797 11.873 11.797H636.9c14.676 0 23.557-5.284 31.283-18.122L781.174 28.518C791.967 10.7 809.237 1.174 829.612 1.174c19.713 0 35.335 8.92 46.792 27.344M104.225 213.354c-6.552 0-11.798 5.283-11.798 11.816v60.766c0 24.011-19.447 43.402-43.42 43.402H43.42C19.447 329.338 0 309.948 0 285.936l.038-110.511c0-28.045 21.53-51.734 51.715-51.734h176.56c23.955 0 43.42 19.467 43.42 43.478v2.726c0 24.05-19.465 43.459-43.42 43.459z" style="fill:#03234c;fill-opacity:1;fill-rule:nonzero;stroke:none"/><path d="M0 0h10.861c1.28 0 2.321-.999 2.321-2.278v-.144a2.322 2.322 0 0 0-2.321-2.323H0a2.32 2.32 0 0 0-2.32 2.323v.159C-2.32-.981-1.281 0 0 0" style="fill:#e51937;fill-opacity:1;fill-rule:nonzero;stroke:none" transform="matrix(18.93617 0 0 -18.93617 43.95 6.25)"/></svg>